<?xml version="1.0" encoding="utf-8"?>
<!-- Generator: Adobe Illustrator 19.0.0, SVG Export Plug-In . SVG Version: 6.00 Build 0)  -->
<svg version="1.1" id="Layer_1" xmlns="http://www.w3.org/2000/svg" xmlns:xlink="http://www.w3.org/1999/xlink" x="0px" y="0px"
	 viewBox="0 0 144 144" style="enable-background:new 0 0 144 144;" xml:space="preserve">
<style type="text/css">
	.st0{fill:none;}
</style>
<polygon id="XMLID_5_" points="98,116 98,134 10,134 10,28 46,28 46,18 0,18 0,144 108,144 108,116 "/>
<g id="XMLID_1_">
	<polygon id="XMLID_3_" class="st0" points="134,99 134,10 46,10 46,116 117,116 117,99 	"/>
	<polygon id="XMLID_4_" class="st0" points="134,116 134,109 127,116 	"/>
	<polygon id="XMLID_6_" points="36,0 36,126 117,126 117,116 46,116 46,10 134,10 134,99 144,99 144,0 	"/>
	<polygon id="XMLID_11_" points="134,109 134,99 117,99 117,116 127,116 	"/>
	<polygon id="XMLID_12_" points="134,109 144,99 134,99 	"/>
	<polygon id="XMLID_13_" points="117,116 117,126 127,116 	"/>
</g>
</svg>
