<?xml version="1.0" encoding="utf-8"?>
<!-- Generator: Adobe Illustrator 19.0.0, SVG Export Plug-In . SVG Version: 6.00 Build 0)  -->
<svg version="1.1" id="Layer_1" xmlns="http://www.w3.org/2000/svg" xmlns:xlink="http://www.w3.org/1999/xlink" x="0px" y="0px"
	 viewBox="0 0 305.9 431.4" style="enable-background:new 0 0 305.9 431.4;" xml:space="preserve">
<style type="text/css">
	.st0{fill:#131313;}
</style>
<g id="XMLID_22_">
	<path id="XMLID_24_" class="st0" d="M72,0C-0.3,0,0,72,0,72v72c0,0,0.3,65.8,63,71.6c17,0,18,18.4,18,18.4v175c0,0,1.3,18-9,18
		s-9-18-9-18s0-140.7,0-159c0-18.3-18-18-18-18H0v9v88.6V360c0,0-0.3,72,72,72c72.3,0,72-72,72-72v-72c0,0-0.3-65.8-63-71.6
		c-17,0-18-18.4-18-18.4V23c0,0,0-18,9-18s9,18,9,18s0,140.7,0,159s18,18,18,18h45v-9V72C144,72,144.3,0,72,0z"/>
	<path id="XMLID_26_" class="st0" d="M306,241v-9c0,0-27,0-45,0s-18,18-18,18v159c0,0-0.7,18-9,18c-8.3,0-9-18-9-18V23
		c0,0,0.7-18,9-18c8.3,0,9,18,9,18s0,140.7,0,159s18,18,18,18h45v-9v0V91V72c0,0,0.3-72-72-72c-72.3,0-72,72-72,72v108v72v108
		c0,0-0.3,72,72,72c72.3,0,72-72,72-72v-75V241L306,241z"/>
</g>
</svg>
