<?xml version="1.0" encoding="utf-8"?>
<!-- Generator: Adobe Illustrator 19.0.0, SVG Export Plug-In . SVG Version: 6.00 Build 0)  -->
<svg version="1.1" id="Layer_1" xmlns="http://www.w3.org/2000/svg" xmlns:xlink="http://www.w3.org/1999/xlink" x="0px" y="0px"
	 viewBox="0 0 64 64" style="enable-background:new 0 0 64 64;" xml:space="preserve">
<style type="text/css">
	.st0{fill:#72A82D;}
</style>
<g id="XMLID_9_">
	<g id="XMLID_19_">
		<g id="XMLID_5_">
			<path id="XMLID_1_" d="M32,59.8c-6.5-10.3-18.5-31.1-18.5-39.1c0-10.2,8.3-18.5,18.5-18.5s18.5,8.3,18.5,18.5
				C50.5,28.8,38.5,49.5,32,59.8z"/>
		</g>
		<g id="XMLID_2_">
			<path d="M32,4.5c9,0,16.3,7.3,16.3,16.3c0,1.8-1,7.7-9.8,23.7c-2.3,4.2-4.6,8.1-6.5,11.1c-1.8-3-4.2-6.9-6.5-11.1
				c-8.9-16-9.8-21.9-9.8-23.7C15.7,11.8,23,4.5,32,4.5 M32,0C20.5,0,11.2,9.3,11.2,20.8C11.2,32.2,32,64,32,64s20.8-31.8,20.8-43.2
				C52.8,9.3,43.5,0,32,0L32,0z"/>
		</g>
	</g>
	<g id="XMLID_17_">
		<path id="XMLID_6_" class="st0" d="M32,30.3c-5.7,0-10.3-4.6-10.3-10.3S26.3,9.7,32,9.7c5.7,0,10.3,4.6,10.3,10.3
			S37.7,30.3,32,30.3z M32,14.2c-3.2,0-5.8,2.6-5.8,5.8s2.6,5.8,5.8,5.8c3.2,0,5.8-2.6,5.8-5.8S35.2,14.2,32,14.2z"/>
	</g>
</g>
</svg>
